<svg xmlns="http://www.w3.org/2000/svg" xmlns:xlink="http://www.w3.org/1999/xlink" width="78" height="30" viewBox="0 0 78 30">
  <defs>
    <style>
      .cls-1 {
        fill: #fff;
        fill-rule: evenodd;
        filter: url(#filter);
      }
    </style>
    <filter id="filter" x="762" y="8276" width="78" height="30" filterUnits="userSpaceOnUse">
      <feFlood result="flood" flood-color="#111"/>
      <feComposite result="composite" operator="in" in2="SourceGraphic"/>
      <feBlend result="blend" in2="SourceGraphic"/>
    </filter>
  </defs>
  <path id="mountains.svg" class="cls-1" d="M801.017,8306H840l-0.008-.34-17.865-18.16-4.894,4.98L801.015,8276,784.8,8292.48l-4.894-4.98-17.864,18.16L762,8306h39.017Zm20.382-14.71c0.9-.28.417,0.63,0.728,1,0.029,0.01,1.127-.63,1.154-0.62,0.427,0.8,2.794,4.86,3.869,4.56,1.206,0.93.339,1.08,1.09,2.41-1.9-1.04.726,4.26-1.848,0.47-0.4.51-.447,1.8-0.789,1.84a0.413,0.413,0,0,1-.314-0.01l0.136-.14-0.394-.4a6.588,6.588,0,0,1-1.161-1.18l-5.2-5.28A20.124,20.124,0,0,1,821.4,8291.29Zm-41.879-1.08c0.9-.28.784,0.02,1.1,0.39,0.029,0.01.76-.02,0.787-0.01-0.527,4.42,2.539,6.1,3.869,8.45-0.5.3-.679,0.97-1.175,1.27-0.313.2-.031-0.48-0.372-0.44-3.246-.08-2.285,1.88-2.882,1.16-1.393,1.47-2.48,1.6-3.936,2.99-0.187-.22,2.033-2.03,1.629-2.07-5.022-.46-6.963,2.27-6.477.92a0.471,0.471,0,0,0-.082-0.23,2.611,2.611,0,0,1-.355.29,0.707,0.707,0,0,0-.138.02,5.233,5.233,0,0,0-1.728-.34c1.839-1.12,2.116-2.74.888-2.12-0.173.07-1.588,1.28-1.851,1.52a4.547,4.547,0,0,1-.484-0.52S778.262,8291.2,779.52,8290.21Zm21.257-10.35c0.9-.27.785,0.02,1.1,0.39,0.029,0.01.759-.02,0.787-0.01-0.527,4.42,2.539,6.1,3.869,8.45-0.5.3-.679,0.97-1.175,1.28-0.313.19-.031-0.49-0.372-0.45-3.247-.07-2.285,1.88-2.882,1.17-1.394,1.46-2.48,1.59-3.936,2.98-0.187-.22-0.281-1.08-0.686-1.11-4.153,1.12-6.672,4.42-6.187,3.07a0.437,0.437,0,0,0-.081-0.23c-0.093.08-.245,0.21-0.355,0.29-0.044,0-.091.01-0.139,0.01-0.071-.1.434-3.52,0.3-3.44,1.839-1.12,2.115-2.74.888-2.12-0.173.08-1.588,1.28-1.851,1.52a3.843,3.843,0,0,1-.484-0.52S799.52,8280.85,800.777,8279.86Z" transform="translate(-762 -8276)"/>
</svg>
